<svg width="24" height="24" viewBox="0 0 24 24" fill="none" xmlns="http://www.w3.org/2000/svg">
<g clip-path="url(#clip0_7788_4780)">
<path d="M23.417 10.5857L21.7802 8.94915C21.3917 8.56067 21.0734 7.79296 21.0734 7.2424V4.9279C21.0734 3.82691 20.1739 2.92747 19.0732 2.92689H16.7578C16.2079 2.92689 15.4393 2.60796 15.0507 2.21976L13.4142 0.58321C12.6366 -0.194403 11.3634 -0.194403 10.5857 0.58321L8.94919 2.22094C8.56036 2.60942 7.79089 2.92747 7.24215 2.92747H4.92765C3.82811 2.92747 2.92751 3.82691 2.92751 4.9279V7.24246C2.92751 7.79085 2.60922 8.56096 2.22068 8.94921L0.583832 10.5858C-0.194367 11.3634 -0.194367 12.6366 0.583832 13.4154L2.22068 15.052C2.60946 15.4405 2.92751 16.2103 2.92751 16.7587V19.0733C2.92751 20.1731 3.82811 21.0737 4.92765 21.0737H7.2422C7.79212 21.0737 8.56071 21.392 8.94925 21.7803L10.5858 23.4174C11.3634 24.1944 12.6366 24.1944 13.4142 23.4174L15.0508 21.7803C15.4396 21.3918 16.2079 21.0737 16.7578 21.0737H19.0733C20.174 21.0737 21.0734 20.1731 21.0734 19.0733V16.7587C21.0734 16.2079 21.392 15.4402 21.7802 15.052L23.4171 13.4154C24.1941 12.6366 24.1941 11.3633 23.417 10.5857ZM10.4124 16.5003L5.99958 12.087L7.41383 10.673L10.4127 13.6719L16.5859 7.50016L17.9998 8.91411L10.4124 16.5003Z" fill="url(#paint0_linear_7788_4780)"/>
</g>
<defs>
<linearGradient id="paint0_linear_7788_4780" x1="12" y1="24.0002" x2="12" y2="-7.72484e-05" gradientUnits="userSpaceOnUse">
<stop stop-color="#9F2FFF"/>
<stop offset="1" stop-color="#0BB1D3"/>
</linearGradient>
<clipPath id="clip0_7788_4780">
<rect width="24" height="24" fill="white"/>
</clipPath>
</defs>
</svg>
